<svg width="106" height="37" viewBox="0 0 106 37" fill="none" xmlns="http://www.w3.org/2000/svg">
<path d="M0.5 25V25.0059C0.505723 26.5511 1.26925 28.0034 2.57324 29.0566C3.79333 30.0421 5.40287 30.6136 7.08594 30.6846L7.42383 30.6924H49.6367L52.4941 35.9316C52.5818 36.0922 52.7497 36.1924 52.9326 36.1924C53.1156 36.1923 53.2845 36.0924 53.3721 35.9316L55.5508 31.9316L56.2256 30.6934C57.1745 30.6975 60.0064 30.7165 63.8477 30.7334C68.2575 30.7528 73.991 30.769 79.709 30.7549C85.4261 30.7408 91.1311 30.6965 95.4834 30.5947C97.6587 30.5439 99.5017 30.4789 100.841 30.3955C101.509 30.3539 102.06 30.3067 102.468 30.2539C102.67 30.2276 102.848 30.1983 102.99 30.165C103.061 30.1484 103.133 30.1296 103.198 30.1055C103.256 30.0843 103.345 30.0465 103.427 29.9805C104.731 28.927 105.495 27.4733 105.5 25.9277V6.1875L105.49 5.89844C105.397 4.46151 104.649 3.12231 103.427 2.13477C102.125 1.08383 100.38 0.504145 98.5762 0.5H7.43262L7.43066 0.500977L7.42773 0.5C5.6237 0.504145 3.87854 1.08377 2.57715 2.13477C1.27311 3.18802 0.509599 4.64125 0.503906 6.18652V6.19238L0.5 25Z" fill="white" stroke="black" stroke-linejoin="round"/>
</svg>
